<svg xmlns="http://www.w3.org/2000/svg" xmlns:xlink="http://www.w3.org/1999/xlink" id="Capa_1" x="0px" y="0px" viewBox="0 0 548.14 131.2" style="enable-background:new 0 0 548.14 131.2;" xml:space="preserve"><style type="text/css">	.st0{fill:#192C83;}	.st1{fill:#FFBC00;}	.st2{fill:#FFFFFF;}</style><g>	<path class="st0" d="M417.3,32.29c-3.48,0-14.77,0-21.35,0c-18.67,0-33.85,15.19-33.85,33.85c0,18.67,15.19,33.85,33.85,33.85  c6.58,0,17.88,0,21.35,0c4.57,0,8.28-3.71,8.28-8.28V40.57C425.58,36,421.88,32.29,417.3,32.29z M395.95,83.43  c-9.54,0-17.29-7.76-17.29-17.29c0-9.53,7.75-17.29,17.29-17.29c4.77,0,13.07,0,13.07,0s0,12.52,0,17.29c0,4.86,0,17.29,0,17.29  S400.62,83.43,395.95,83.43z"></path>	<path class="st0" d="M265.73,32.29c-3.47,0-14.77,0-21.35,0c-18.67,0-33.86,15.19-33.86,33.85c0,18.67,15.19,33.85,33.86,33.85  c6.57,0,17.88,0,21.35,0c4.57,0,8.28-3.71,8.28-8.28V40.57C274.02,36,270.31,32.29,265.73,32.29z M244.38,83.43  c-9.54,0-17.29-7.76-17.29-17.29c0-9.53,7.76-17.29,17.29-17.29c4.77,0,13.06,0,13.06,0s0,12.52,0,17.29c0,4.86,0,17.29,0,17.29  S249.05,83.43,244.38,83.43z"></path>	<path class="st0" d="M524.9,59.17l14.7-12.25c3.51-2.93,3.99-8.15,1.06-11.67c-2.93-3.51-8.15-3.98-11.66-1.06l-23.43,19.53V28.89  c0-4.58-3.71-8.28-8.28-8.28s-8.28,3.71-8.28,8.28v62.83c0,4.57,3.71,8.28,8.28,8.28s8.28-3.71,8.28-8.28V72.45  c0.12,0.01,0.25,0.03,0.37,0.03c14.16,0,20.08,2.67,20.08,19.24c0,4.57,3.71,8.28,8.28,8.28c4.58,0,8.28-3.71,8.28-8.28  C542.58,74.93,536.76,64.16,524.9,59.17z"></path>	<path class="st0" d="M308.96,33.37h-11.2v-4.49c0-4.58-3.71-8.28-8.28-8.28c-4.57,0-8.29,3.71-8.29,8.28v46.9  c0,17.76,13.36,24.21,22.35,24.21c4.57,0,8.28-3.71,8.28-8.28s-3.71-8.28-8.28-8.28c-1.74,0-5.78-0.75-5.78-7.65V47.73h11.2  c3.96,0,7.17-3.22,7.17-7.18C316.13,36.58,312.92,33.37,308.96,33.37z"></path>	<path class="st0" d="M185.72,56.62h-7.43c-2.82,0-5.12-2.3-5.12-5.12c0-2.82,2.3-5.12,5.12-5.12h16.61c4.57,0,8.28-3.71,8.28-8.28  c0-4.57-3.71-8.28-8.28-8.28h-16.61c-11.96,0-21.68,9.73-21.68,21.68c0,11.96,9.73,21.68,21.68,21.68h7.43  c2.82,0,5.12,2.3,5.12,5.12c0,2.82-2.3,5.12-5.12,5.12h-20.84c-4.57,0-8.28,3.71-8.28,8.28s3.71,8.28,8.28,8.28h20.84  c11.96,0,21.68-9.73,21.68-21.68C207.4,66.35,197.68,56.62,185.72,56.62z"></path>	<path class="st0" d="M364.45,40.57c0-4.57-3.71-8.28-8.28-8.28c-6.58,0-12.7,1.92-17.91,5.18c-1.22-3.03-4.19-5.18-7.66-5.18  c-4.57,0-8.28,3.71-8.28,8.28v25.57v1.07v24.5c0,4.57,3.71,8.28,8.28,8.28c4.57,0,8.28-3.71,8.28-8.28v-24.5v-1.07  c0-9.53,7.76-17.29,17.29-17.29C360.74,48.85,364.45,45.14,364.45,40.57z"></path>	<path class="st0" d="M476.19,83.43L476.19,83.43c0,0-8.78,0-12.19,0c-9.53,0-17.29-7.76-17.29-17.29c0-9.53,7.76-17.29,17.29-17.29  c1.1,0,2.39,0,3.72,0c2.86,0,5.91,0,7.72,0c0.11,0,0.21,0.03,0.33,0.03c0.11,0,0.22-0.03,0.33-0.03c0.03,0,0.06,0,0.06,0l0.03-0.01  c4.39-0.22,7.88-3.82,7.88-8.26c0-4.44-3.49-8.03-7.88-8.26v-0.04c-4.17,0-8.81,0-12.19,0c-18.67,0-33.85,15.19-33.85,33.85  c0,18.67,15.18,33.85,33.85,33.85c3.38,0,12.19,0,12.19,0c4.39-0.22,7.88-3.86,7.88-8.3C484.07,87.26,480.58,83.65,476.19,83.43z"></path>	<g>		<path class="st1" d="M19.8,70.37c-4.89,4.21-8.72,7.18-12.29,9.98c6.72,24.92,29.6,43.49,56.64,43.49c2.07,0,4.1-0.11,6.1-0.32   c0-3.21-0.05-7.84-0.05-13.54c-1.99,0.27-4.24,0.43-6.31,0.42C41.55,110.33,22.18,93.48,19.8,70.37z"></path>		<path class="st0" d="M96.51,73.06C79.39,72.99,70.2,73.65,70.2,93.35c0,6.08,0,11.73,0,16.65c0.03,0,0.09,13.57,0.09,13.57   c29.34-3.08,52.22-27.82,52.36-57.94c-0.02-5.18-0.73-10.19-2.01-14.96C120.2,52.04,113.08,73.13,96.51,73.06z"></path>		<path class="st0" d="M14.32,74.95c0,0,5.49-4.58,5.49-4.58c2.24-2.13,4.39-4.36,6.21-6.6c3.07-3.76,5.41-9.35,5.51-11.9   c0-0.02-0.14-0.81,0.75-0.81c0.59,0,0.74,0.33,0.74,0.74c0,0.01-0.01,0.02-0.01,0.03c0,0.26,0,4.19,0,5.25   c0,6.3,10.53,17.58,23.37,18.93c0,0,3.94,0.46,3.94-1.68V16.69h13.62c0,0,12.86,1.04,12.86,14.48c0,0,26.34,3.03,26.55,3.07   C102.92,18.1,84.75,7.35,64.1,7.35c-32.24,0-58.39,26.06-58.55,58.27c0.03,5.09,0.7,10.03,1.95,14.74L14.32,74.95z"></path>		<path class="st0" d="M122.07,44.82c1.48-6.17,1.97-10.2-3.79-10.1c-1.02,0.02-2.77-0.16-4.9-0.46c2.27,3.17,5.19,9.77,7.27,16.4   C121.43,48.33,121.79,46,122.07,44.82z"></path>		<path class="st2" d="M120.65,50.66c-1.28-4.32-3.94-10.66-5.32-13.13c-0.62-1.12-1.1-2.08-1.97-3.28l-0.6-0.07l-25.95-3   c0-13.44-12.86-14.48-12.86-14.48H60.33v57.63c0,2.14-3.94,1.68-3.94,1.68c-12.84-1.35-23.37-12.64-23.37-18.93   c0-1.06,0-4.99,0-5.25c0-0.01,0.01-0.02,0.01-0.03c0-0.41-0.15-0.74-0.74-0.74c-0.88,0-0.75,0.79-0.75,0.81   c-0.1,2.54-2.44,8.14-5.51,11.9c-1.83,2.24-3.97,4.47-6.21,6.6c2.24,22.49,21.21,40.06,44.29,40.06c2.07,0,4.11-0.16,6.1-0.43   c0-4.92,0-10.57,0-16.65c0-19.7,9.18-20.37,26.31-20.29C113.55,73.14,120.65,50.69,120.65,50.66z M75.87,38.53   c-4.27-2.9-1.35-8.77,3.54-7.12C83.68,34.31,80.76,40.19,75.87,38.53z"></path>		<path class="st0" d="M79.41,31.41c-4.89-1.66-7.81,4.22-3.54,7.12C80.76,40.19,83.68,34.31,79.41,31.41z"></path>	</g></g></svg>